<?xml version="1.0" encoding="utf-8"?>
<!-- Generator: Adobe Illustrator 16.0.0, SVG Export Plug-In . SVG Version: 6.00 Build 0)  -->
<!DOCTYPE svg PUBLIC "-//W3C//DTD SVG 1.1//EN" "http://www.w3.org/Graphics/SVG/1.1/DTD/svg11.dtd">
<svg version="1.1" id="Layer_1" xmlns="http://www.w3.org/2000/svg" xmlns:xlink="http://www.w3.org/1999/xlink" x="0px" y="0px"
	 width="500px" height="500px" viewBox="250 -91 500 500" enable-background="new 250 -91 500 500" xml:space="preserve">
<g>
	<polygon fill="#F3F3F3" points="355.861,116.154 362.634,111.808 362.634,118.251 355.861,122.61 	"/>
	<polygon fill="#F3F3F3" points="366.602,109.218 373.415,104.745 373.415,111.166 366.602,115.505 	"/>
	<polygon fill="#F3F3F3" points="355.861,135.237 362.634,130.908 362.634,137.35 355.861,141.66 	"/>
	<polygon fill="#F3F3F3" points="366.602,128.282 373.415,123.816 373.415,130.265 366.602,134.603 	"/>
	<polygon fill="#F3F3F3" points="355.861,154.308 362.634,149.998 362.634,156.413 355.861,160.758 	"/>
	<polygon fill="#F3F3F3" points="366.602,147.369 373.415,142.889 373.415,149.351 366.602,153.688 	"/>
	<polygon fill="#F3F3F3" points="355.861,172.583 362.634,168.247 362.634,174.688 355.861,179.042 	"/>
	<polygon fill="#F3F3F3" points="366.602,165.646 373.415,161.189 373.415,167.606 366.602,171.933 	"/>
	<polygon fill="#F3F3F3" points="355.861,191.682 362.634,187.347 362.634,193.788 355.861,198.099 	"/>
	<polygon fill="#F3F3F3" points="366.602,184.712 373.415,180.253 373.415,186.701 366.602,191.041 	"/>
	<polygon fill="#F3F3F3" points="355.861,210.735 362.634,206.414 362.634,212.852 355.861,217.199 	"/>
	<polygon fill="#F3F3F3" points="366.602,203.784 373.415,199.33 373.415,205.784 366.602,210.124 	"/>
	<path fill="#5CAE61" d="M654.974,236.096v-40.269l-1.474-2.551l-18.277-11.392v-54.703l-1.36-2.546l-42.879-27.51l-2.557-0.304
		l-42.271,14.191l0.266-135.241c0-1.251-0.625-2.408-1.593-3.148l-59.417-42.969c-1.212-0.861-2.749-0.965-4.081-0.327
		c-1.26,0.674-2.078,2.011-2.078,3.487v54.468l-49.271,30.17c-1.129,0.71-1.851,1.94-1.851,3.312v75.649l-46.335-15.099
		c-0.578-0.167-1.12-0.167-1.676-0.04l-0.132-0.201l-0.854,0.636c0,0-0.029,0.014-0.029,0.023c-0.034,0.013-0.034,0.013-0.048,0.038
		l-31.668,23.142c-0.804,0.583-1.263,1.45-1.263,2.443v121.238c-43.91,13.705-69.121,28.874-69.121,28.874
		s43.828-12.259,100.852-21.715v0.054c1.996-0.346,3.999-0.616,6.017-0.917v-0.111c33.062-5.283,70.086-9.477,105.34-9.78
		c131.716-1.125,226.581,39.203,226.581,39.203C701.72,254.836,680.216,244.958,654.974,236.096z"/>
	<g>
		<g>
			<polygon fill="#F3F3F3" points="403.138,110.827 394.941,108.663 394.941,102.146 403.138,104.309 			"/>
			<polygon fill="#F3F3F3" points="415.201,113.719 406.983,111.552 406.983,105.047 415.201,107.208 			"/>
		</g>
	</g>
	<g>
		<g>
			<polygon fill="#F3F3F3" points="403.138,129.628 394.941,127.461 394.941,120.958 403.138,123.127 			"/>
			<polygon fill="#F3F3F3" points="415.201,132.533 406.983,130.367 406.983,123.849 415.201,126.014 			"/>
		</g>
	</g>
	<g>
		<g>
			<polygon fill="#F3F3F3" points="403.138,148.454 394.941,146.278 394.941,139.76 403.138,141.937 			"/>
			<polygon fill="#F3F3F3" points="415.201,151.352 406.983,149.175 406.983,142.658 415.201,144.835 			"/>
		</g>
	</g>
	<g>
		<g>
			<polygon fill="#F3F3F3" points="403.138,167.261 394.941,165.081 394.941,158.59 403.138,160.758 			"/>
			<polygon fill="#F3F3F3" points="415.201,170.151 406.983,167.982 406.983,161.465 415.201,163.645 			"/>
		</g>
	</g>
	<g>
		<g>
			<polygon fill="#F3F3F3" points="403.138,186.071 394.941,183.901 394.941,177.393 403.138,179.544 			"/>
			<polygon fill="#F3F3F3" points="415.201,188.958 406.983,186.782 406.983,180.276 415.201,182.447 			"/>
		</g>
	</g>
	<g>
		<g>
			<polygon fill="#F3F3F3" points="403.138,204.892 394.941,202.71 394.941,196.196 403.138,198.365 			"/>
			<polygon fill="#F3F3F3" points="415.201,207.779 406.983,205.606 406.983,199.101 415.201,201.269 			"/>
		</g>
	</g>
	<polygon fill="#F3F3F3" points="625.569,137.262 598.164,120.042 598.164,126.483 625.569,143.693 	"/>
	<polygon fill="#F3F3F3" points="625.569,159.988 598.164,142.77 598.164,149.185 625.569,166.422 	"/>
	<g>
		<g>
			<polygon fill="#F3F3F3" points="442.5,38.588 453.896,31.338 453.896,42.137 442.5,49.375 			"/>
			<polygon fill="#F3F3F3" points="442.5,70.571 453.896,63.337 453.896,74.097 442.5,81.35 			"/>
			<polygon fill="#F3F3F3" points="460.548,58.963 471.975,51.459 471.975,62.263 460.548,69.515 			"/>
			<polygon fill="#F3F3F3" points="460.548,29.029 471.975,21.572 471.975,32.339 460.548,39.603 			"/>
			<polygon fill="#F3F3F3" points="442.5,102.522 453.896,95.271 453.896,106.038 442.5,113.309 			"/>
			<polygon fill="#F3F3F3" points="460.548,90.875 471.975,83.413 471.975,94.235 460.548,101.474 			"/>
			<polygon fill="#F3F3F3" points="442.5,131.41 453.896,124.103 453.896,134.927 442.5,142.144 			"/>
			<polygon fill="#F3F3F3" points="460.548,119.755 471.975,112.316 471.975,123.093 460.548,130.367 			"/>
			<polygon fill="#F3F3F3" points="442.5,163.36 453.896,156.083 453.896,166.858 442.5,174.138 			"/>
			<polygon fill="#F3F3F3" points="460.548,151.735 471.975,144.25 471.975,155.021 460.548,162.322 			"/>
			<polygon fill="#F3F3F3" points="442.5,195.277 453.896,188.049 453.896,198.827 442.5,206.106 			"/>
			<polygon fill="#F3F3F3" points="460.548,183.688 471.975,176.206 471.975,187.024 460.548,194.271 			"/>
		</g>
	</g>
	<g>
		<g>
			<polygon fill="#F3F3F3" points="532.042,-0.839 518.913,-9.151 518.913,3.253 532.042,11.604 			"/>
			<polygon fill="#F3F3F3" points="532.042,35.954 518.913,27.583 518.913,39.998 532.042,48.376 			"/>
			<polygon fill="#F3F3F3" points="511.284,22.574 498.147,13.972 498.147,26.392 511.284,34.744 			"/>
			<polygon fill="#F3F3F3" points="511.284,-11.847 498.147,-20.456 498.147,-8.062 511.284,0.326 			"/>
			<polygon fill="#F3F3F3" points="532.042,72.733 518.913,64.362 518.913,76.736 532.042,85.086 			"/>
			<polygon fill="#F3F3F3" points="511.284,59.327 498.147,50.761 498.147,63.153 511.284,71.498 			"/>
			<polygon fill="#F3F3F3" points="532.042,105.93 518.913,97.581 518.913,110.024 532.042,118.337 			"/>
			<polygon fill="#F3F3F3" points="511.284,92.578 498.147,83.997 498.147,96.392 511.284,104.725 			"/>
			<polygon fill="#F3F3F3" points="532.042,142.685 518.913,134.317 518.913,146.742 532.042,155.106 			"/>
			<polygon fill="#F3F3F3" points="511.284,129.326 498.147,120.714 498.147,133.157 511.284,141.505 			"/>
			<polygon fill="#F3F3F3" points="532.042,179.448 518.913,171.097 518.913,183.493 532.042,191.85 			"/>
			<polygon fill="#F3F3F3" points="511.284,166.058 498.147,157.481 498.147,169.917 511.284,178.253 			"/>
		</g>
	</g>
	<polygon fill="#F3F3F3" points="625.569,181.931 598.164,164.71 598.164,171.18 625.569,188.395 	"/>
	<polygon fill="#F3F3F3" points="625.714,203.342 597.791,187.059 598.002,193.499 625.946,209.778 	"/>
	<g>
		<g>
			<polygon fill="#F3F3F3" points="581.298,123.451 581.217,117.891 553.257,127.063 553.288,132.734 			"/>
			<polygon fill="#F3F3F3" points="581.298,140.553 581.217,134.997 553.319,144.161 553.338,149.8 			"/>
			<polygon fill="#F3F3F3" points="581.298,157.638 581.217,152.085 553.384,161.218 553.401,166.901 			"/>
			<polygon fill="#F3F3F3" points="581.298,175.643 581.217,170.079 553.436,179.211 553.448,184.882 			"/>
			<polygon fill="#F3F3F3" points="581.298,193.646 581.217,188.086 553.486,197.197 553.498,202.87 			"/>
		</g>
	</g>
</g>
<g id="Layer_x0020_1">
	<g>
		<path fill="#5CAE61" d="M411.116,298.625l30.059,0.426l14.837-3.745c0.317-0.069,0.617-0.102,0.917-0.102v-0.021h29.9
			l9.271-10.297l1.15-1.269h1.693h30.552h0.989l0.917,0.527l25.858,14.924l29.527-0.162v-0.262v-3.817h3.817h54.839h3.817v3.817
			v61.688v3.815h-3.817h-54.839h-3.817v-3.815v-3.513h-17.891l-19.268,9.091l5.809,6.091c1.448,1.522,1.381,3.939-0.141,5.388
			c-0.369,0.358-0.774,0.604-1.213,0.779l-63.265,26.279c-1.43,0.6-3.036,0.243-4.097-0.774l-54.128-46.89l-21.457-0.386v3.935
			v3.815h-3.815h-59.684h-3.813v-3.815v-61.688v-3.817h3.813h59.684h3.815v3.817l0,0L411.116,298.625z M609.691,340.89v7.644h-7.648
			v-7.644H609.691z M586.77,306.485l-30.535,0.155h-1.028l-0.88-0.511l-25.818-14.905h-27.869l-9.076,10.083l-0.021,0.021
			l-0.052,0.07l-0.298,0.337l-27.215,30.235c-0.46,1.148-0.355,2.506,0.172,3.758c0.478,1.136,1.309,2.208,2.371,3.058
			c1.076,0.846,2.383,1.484,3.831,1.693c2.472,0.393,5.457-0.35,8.617-2.893l0.229-0.161l23.668-16.372l2.682-1.852l2.241,2.383
			l36.313,38.479l22.341-10.54l0.793-0.371h0.828h18.722v-42.667L586.77,306.485L586.77,306.485z M484.425,377.866
			c-1.571-1.396-1.712-3.797-0.334-5.368c1.395-1.57,3.796-1.709,5.37-0.336l18.862,16.709l6.978-2.898L499.085,371.6
			c-1.569-1.397-1.714-3.798-0.334-5.37c1.392-1.575,3.795-1.717,5.368-0.336l18.985,16.829l7.624-3.162l-15.52-13.757
			c-1.573-1.394-1.715-3.795-0.333-5.369c1.392-1.575,3.794-1.712,5.369-0.339l18.293,16.217l7.527-3.124l-3.73-3.907l-0.014,0.021
			l-1.895-1.998l-0.016-0.016l-0.051-0.052l-0.072-0.074l-35.852-37.984l-20.805,14.394c-5,4.005-10.102,5.12-14.5,4.43
			c-2.843-0.437-5.369-1.626-7.398-3.252c-2.05-1.621-3.657-3.743-4.627-6.018c-1.45-3.407-1.536-7.262,0.247-10.651l0.228-0.437
			l0.321-0.336l22.039-24.479h-22.57l-14.799,3.727v-0.022c-0.299,0.072-0.636,0.126-0.972,0.105l-30.5-0.423v42.546l22.975,0.402
			l0.23,0.023l0.123,0.015l0.212,0.034l0.106,0.018l0.124,0.039l0.087,0.013l0.46,0.161l0.071,0.033
			c0.352,0.142,0.688,0.36,0.987,0.619l53.53,46.38l10.455-4.343l-16.091-14.253L484.425,377.866z"/>
	</g>
</g>
</svg>
