<?xml version="1.0" encoding="utf-8"?>
<!-- Generator: Adobe Illustrator 16.0.0, SVG Export Plug-In . SVG Version: 6.00 Build 0)  -->
<!DOCTYPE svg PUBLIC "-//W3C//DTD SVG 1.1//EN" "http://www.w3.org/Graphics/SVG/1.1/DTD/svg11.dtd">
<svg version="1.1" id="Layer_1" xmlns="http://www.w3.org/2000/svg" xmlns:xlink="http://www.w3.org/1999/xlink" x="0px" y="0px"
	 width="500px" height="200px" viewBox="0 0 500 200" enable-background="new 0 0 500 200" xml:space="preserve">
<g>
	<path fill="#5BAF61" d="M118.768,65.423h7.425V79.67c-1.907,1.439-4.114,2.542-6.622,3.312c-2.509,0.769-5.034,1.154-7.576,1.154
		c-3.644,0-6.923-0.778-9.833-2.333c-2.909-1.555-5.192-3.712-6.848-6.472c-1.654-2.759-2.483-5.877-2.483-9.356
		c0-3.478,0.828-6.597,2.483-9.356c1.656-2.759,3.955-4.915,6.898-6.472c2.942-1.555,6.253-2.333,9.932-2.333
		c3.076,0,5.87,0.52,8.378,1.555c2.508,1.037,4.615,2.542,6.321,4.515l-5.218,4.815c-2.508-2.641-5.536-3.962-9.081-3.962
		c-2.241,0-4.23,0.468-5.969,1.405c-1.74,0.936-3.094,2.258-4.063,3.963c-0.97,1.706-1.455,3.662-1.455,5.869
		c0,2.174,0.484,4.114,1.455,5.819c0.969,1.706,2.315,3.036,4.039,3.988c1.721,0.953,3.687,1.43,5.894,1.43
		c2.341,0,4.447-0.502,6.321-1.505L118.768,65.423L118.768,65.423z"/>
	<path fill="#5BAF61" d="M140.866,81.777c-2.928-1.572-5.218-3.737-6.873-6.497c-1.655-2.759-2.484-5.86-2.484-9.306
		c0-3.444,0.828-6.547,2.484-9.306c1.655-2.759,3.945-4.923,6.873-6.497c2.926-1.571,6.211-2.358,9.857-2.358
		c3.645,0,6.923,0.787,9.832,2.358c2.91,1.573,5.201,3.737,6.873,6.497c1.673,2.76,2.508,5.862,2.508,9.306
		c0,3.446-0.836,6.547-2.508,9.306c-1.672,2.758-3.963,4.925-6.873,6.497c-2.909,1.572-6.188,2.357-9.832,2.357
		C147.078,84.135,143.792,83.349,140.866,81.777z M156.342,75.783c1.672-0.954,2.985-2.283,3.938-3.989
		c0.954-1.706,1.431-3.645,1.431-5.819c0-2.173-0.477-4.114-1.431-5.819c-0.953-1.706-2.267-3.036-3.938-3.988
		c-1.672-0.954-3.545-1.43-5.619-1.43c-2.073,0-3.946,0.476-5.618,1.43c-1.674,0.953-2.985,2.282-3.938,3.988
		c-0.954,1.706-1.43,3.646-1.43,5.819c0,2.174,0.476,4.114,1.43,5.819c0.953,1.706,2.265,3.036,3.938,3.989
		c1.672,0.953,3.545,1.43,5.618,1.43C152.797,77.213,154.669,76.735,156.342,75.783z"/>
	<path fill="#5BAF61" d="M227.979,48.417l-11.487,35.116h-8.729l-7.726-23.779l-7.976,23.779h-8.678l-11.539-35.116h8.428
		l7.926,24.681l8.278-24.681H204l8.026,24.883l8.178-24.883H227.979z"/>
	<path fill="#5BAF61" d="M239.869,55.039h-11.237v-6.621h30.602v6.621h-11.237v28.495h-8.127V55.039z"/>
	<path fill="#5BAF61" d="M295.805,48.417v35.116h-8.127V69.135h-15.953v14.398h-8.127V48.417h8.127v13.845h15.953V48.417
		L295.805,48.417L295.805,48.417z"/>
	<path fill="#5BAF61" d="M327.259,76.008h-16.304l-3.11,7.524h-8.327l15.65-35.116h8.027l15.703,35.116h-8.528L327.259,76.008z
		 M324.7,69.838l-5.568-13.445l-5.569,13.445H324.7z"/>
	<path fill="#5BAF61" d="M374.515,83.534l-0.051-21.069L364.13,79.821h-3.662l-10.285-16.906v20.619h-7.624V48.417h6.722
		l13.145,21.823l12.942-21.823h6.672l0.101,35.116H374.515z"/>
	<path fill="#5BAF61" d="M11.262,154.068v-35.121h2.408v5.87c1.957-3.762,5.919-6.221,10.736-6.221
		c6.722,0.251,12.041,4.766,12.041,12.743c0,8.328-5.619,12.844-12.593,12.844c-4.215,0-8.128-2.058-10.235-6.17v16.055H11.262z
		 M33.989,131.341c0-6.975-4.515-10.387-10.134-10.387c-5.77,0-10.034,4.366-10.034,10.437s4.364,10.436,10.034,10.436
		C29.474,141.826,33.989,138.313,33.989,131.341z"/>
	<path fill="#5BAF61" d="M44.772,118.947l0.101,4.415c1.556-3.36,5.067-4.665,8.229-4.665c1.856-0.05,3.662,0.451,5.318,1.454
		l-1.104,2.007c-1.304-0.803-2.759-1.154-4.214-1.154c-4.616,0.052-8.178,3.764-8.178,8.279v14.449h-2.458v-24.785H44.772z"/>
	<path fill="#5BAF61" d="M60.977,131.391c0-7.876,5.619-12.894,12.592-12.894c6.974,0,12.593,5.018,12.593,12.894
		s-5.62,12.693-12.593,12.693C66.596,144.083,60.977,139.267,60.977,131.391z M83.754,131.391c0-6.422-4.566-10.586-10.185-10.586
		c-5.618,0-10.185,4.164-10.185,10.586s4.566,10.284,10.185,10.284C79.188,141.675,83.754,137.813,83.754,131.391z"/>
	<path fill="#5BAF61" d="M91.828,154.068v-35.121h2.408v5.87c1.958-3.762,5.921-6.221,10.737-6.221
		c6.723,0.251,12.041,4.766,12.041,12.743c0,8.328-5.619,12.844-12.593,12.844c-4.214,0-8.126-2.058-10.233-6.17v16.055H91.828z
		 M114.555,131.341c0-6.975-4.515-10.387-10.135-10.387c-5.77,0-10.033,4.366-10.033,10.437s4.365,10.436,10.033,10.436
		C110.04,141.826,114.555,138.313,114.555,131.341z"/>
	<path fill="#5BAF61" d="M121.626,131.341c0-7.426,5.62-12.795,12.593-12.795c6.974,0,13.194,4.264,12.242,13.947h-22.326
		c0.501,5.819,4.967,9.182,10.084,9.182c3.261,0,7.074-1.305,8.931-3.763l1.756,1.404c-2.408,3.161-6.723,4.767-10.687,4.767
		C127.246,144.083,121.626,139.218,121.626,131.341z M144.254,130.337c-0.05-6.121-4.064-9.534-10.034-9.534
		c-5.118,0-9.533,3.463-10.084,9.534H144.254z"/>
	<path fill="#5BAF61" d="M155.138,118.947l0.1,4.415c1.556-3.36,5.067-4.665,8.229-4.665c1.857-0.05,3.664,0.451,5.318,1.454
		l-1.103,2.007c-1.304-0.803-2.76-1.154-4.215-1.154c-4.616,0.052-8.178,3.764-8.178,8.279v14.449h-2.458v-24.785H155.138z"/>
	<path fill="#5BAF61" d="M179.719,111.473v7.475h8.429v2.058h-8.429v15.102c0,3.361,0.703,5.72,4.567,5.72
		c1.203,0,2.558-0.401,3.812-1.003l0.854,2.006c-1.555,0.752-3.111,1.254-4.666,1.254c-5.269,0-6.974-3.109-6.974-7.977v-15.102
		h-5.268v-2.058h5.268v-7.225L179.719,111.473z"/>
	<path fill="#5BAF61" d="M215.539,118.947l-15.101,35.121h-2.609l4.566-10.637l-9.934-24.484h2.658l5.771,14.65l2.909,7.174
		l2.861-7.225l6.221-14.6H215.539L215.539,118.947z"/>
	<path fill="#5BAF61" d="M257.879,108.612v35.12h-2.408v-5.469c-2.058,3.764-6.122,5.87-10.335,5.87
		c-6.923,0-12.392-4.566-12.392-12.793c0-8.179,5.519-12.795,12.443-12.795c4.264,0,8.278,1.806,10.285,5.82v-15.754H257.879
		L257.879,108.612z M235.15,131.341c0,6.872,4.566,10.384,10.135,10.384c5.819,0,10.133-4.264,10.133-10.436
		c0-6.171-4.415-10.385-10.133-10.385C239.716,120.905,235.15,124.366,235.15,131.341z"/>
	<path fill="#5BAF61" d="M264.096,131.341c0-7.426,5.619-12.795,12.593-12.795s13.195,4.264,12.242,13.947h-22.326
		c0.502,5.819,4.967,9.182,10.085,9.182c3.261,0,7.073-1.305,8.931-3.763l1.755,1.404c-2.408,3.161-6.722,4.767-10.686,4.767
		C269.715,144.083,264.096,139.218,264.096,131.341z M286.723,130.337c-0.051-6.121-4.063-9.534-10.034-9.534
		c-5.118,0-9.533,3.463-10.085,9.534H286.723z"/>
	<path fill="#5BAF61" d="M292.39,118.947h2.709l9.031,21.925l9.031-21.925h2.708l-10.385,24.785h-2.71L292.39,118.947z"/>
	<path fill="#5BAF61" d="M318.526,131.341c0-7.426,5.619-12.795,12.594-12.795c6.973,0,13.193,4.264,12.241,13.947h-22.326
		c0.502,5.819,4.967,9.182,10.086,9.182c3.26,0,7.073-1.305,8.93-3.763l1.756,1.404c-2.408,3.161-6.723,4.767-10.686,4.767
		C324.146,144.083,318.526,139.218,318.526,131.341z M341.153,130.337c-0.051-6.121-4.064-9.534-10.033-9.534
		c-5.119,0-9.534,3.463-10.086,9.534H341.153z"/>
	<path fill="#5BAF61" d="M352.188,108.612v35.12h-2.459v-35.12H352.188z"/>
	<path fill="#5BAF61" d="M357.906,131.391c0-7.876,5.618-12.894,12.592-12.894c6.975,0,12.594,5.018,12.594,12.894
		s-5.619,12.693-12.594,12.693C363.524,144.084,357.906,139.267,357.906,131.391z M380.684,131.391
		c0-6.422-4.566-10.586-10.186-10.586c-5.618,0-10.185,4.164-10.185,10.586s4.566,10.284,10.185,10.284
		C376.117,141.675,380.684,137.813,380.684,131.391z"/>
	<path fill="#5BAF61" d="M388.758,154.068v-35.121h2.408v5.87c1.958-3.762,5.921-6.221,10.737-6.221
		c6.723,0.251,12.041,4.766,12.041,12.743c0,8.328-5.619,12.844-12.594,12.844c-4.214,0-8.126-2.058-10.233-6.17v16.055H388.758z
		 M411.485,131.341c0-6.975-4.516-10.387-10.135-10.387c-5.77,0-10.033,4.366-10.033,10.437s4.364,10.436,10.033,10.436
		C406.97,141.826,411.485,138.313,411.485,131.341z"/>
	<path fill="#5BAF61" d="M418.557,131.341c0-7.426,5.619-12.795,12.593-12.795s13.194,4.264,12.242,13.947h-22.326
		c0.501,5.819,4.967,9.182,10.085,9.182c3.261,0,7.074-1.305,8.93-3.763l1.757,1.404c-2.408,3.161-6.724,4.767-10.687,4.767
		C424.176,144.083,418.557,139.218,418.557,131.341z M441.185,130.337c-0.051-6.121-4.064-9.534-10.034-9.534
		c-5.118,0-9.533,3.463-10.085,9.534H441.185z"/>
	<path fill="#5BAF61" d="M452.067,118.947l0.1,4.415c1.556-3.36,5.067-4.665,8.229-4.665c1.857-0.05,3.664,0.451,5.318,1.454
		l-1.104,2.007c-1.304-0.803-2.76-1.154-4.215-1.154c-4.616,0.052-8.178,3.764-8.178,8.279v14.449h-2.459v-24.785H452.067z"/>
	<path fill="#5BAF61" d="M486.434,123.464c-2.509-2.208-4.967-2.609-7.727-2.609c-3.863-0.052-7.576,1.404-7.476,4.566
		c0.1,3.311,4.415,3.963,7.525,4.515c4.415,0.753,10.485,1.505,10.234,7.275c-0.151,5.469-5.819,6.924-10.186,6.924
		c-4.363,0-8.68-1.656-10.837-4.967l1.807-1.605c2.057,2.96,5.77,4.215,9.082,4.215c3.009,0,7.575-0.803,7.726-4.716
		c0.101-3.563-4.013-4.265-8.076-4.917c-4.816-0.803-9.583-1.706-9.634-6.673c-0.05-4.867,4.816-6.974,9.834-6.924
		c3.612,0,6.772,1.003,9.231,3.312L486.434,123.464z"/>
</g>
</svg>
