<?xml version="1.0" encoding="utf-8"?>
<!-- Generator: Adobe Illustrator 16.0.0, SVG Export Plug-In . SVG Version: 6.00 Build 0)  -->
<!DOCTYPE svg PUBLIC "-//W3C//DTD SVG 1.1//EN" "http://www.w3.org/Graphics/SVG/1.1/DTD/svg11.dtd">
<svg version="1.1" id="Layer_1" xmlns="http://www.w3.org/2000/svg" xmlns:xlink="http://www.w3.org/1999/xlink" x="0px" y="0px"
	 width="1000px" height="318px" viewBox="0 0 1000 318" enable-background="new 0 0 1000 318" xml:space="preserve">
<g>
	<path fill="#5CAE61" d="M514.561,126.337h8.906v17.09c-2.287,1.726-4.935,3.049-7.943,3.972c-3.009,0.922-6.038,1.384-9.087,1.384
		c-4.372,0-8.304-0.933-11.794-2.798s-6.228-4.453-8.214-7.763c-1.985-3.31-2.979-7.05-2.979-11.223
		c0-4.172,0.993-7.913,2.979-11.223c1.986-3.31,4.744-5.896,8.274-7.763c3.529-1.865,7.501-2.798,11.914-2.798
		c3.69,0,7.041,0.623,10.05,1.865c3.009,1.244,5.536,3.05,7.582,5.416l-6.259,5.776c-3.009-3.168-6.64-4.753-10.892-4.753
		c-2.688,0-5.075,0.562-7.16,1.685c-2.087,1.123-3.711,2.708-4.874,4.754c-1.164,2.046-1.745,4.393-1.745,7.04
		c0,2.608,0.581,4.935,1.745,6.98c1.163,2.046,2.777,3.641,4.844,4.784c2.065,1.143,4.423,1.715,7.07,1.715
		c2.808,0,5.335-0.602,7.582-1.806V126.337z"/>
	<path fill="#5CAE61" d="M541.067,145.954c-3.511-1.885-6.258-4.483-8.244-7.793c-1.985-3.31-2.979-7.029-2.979-11.162
		c0-4.131,0.993-7.853,2.979-11.162c1.986-3.31,4.733-5.906,8.244-7.793c3.51-1.885,7.451-2.828,11.824-2.828
		c4.372,0,8.304,0.943,11.794,2.828c3.49,1.887,6.238,4.483,8.244,7.793s3.009,7.031,3.009,11.162c0,4.133-1.003,7.853-3.009,11.162
		s-4.754,5.908-8.244,7.793c-3.49,1.886-7.422,2.828-11.794,2.828C548.519,148.782,544.577,147.84,541.067,145.954z
		 M559.631,138.764c2.006-1.144,3.581-2.738,4.724-4.784c1.144-2.046,1.716-4.372,1.716-6.98c0-2.607-0.572-4.935-1.716-6.98
		c-1.143-2.046-2.718-3.641-4.724-4.783c-2.006-1.144-4.252-1.715-6.739-1.715s-4.734,0.571-6.739,1.715
		c-2.007,1.143-3.581,2.737-4.724,4.783c-1.144,2.046-1.715,4.373-1.715,6.98c0,2.608,0.571,4.935,1.715,6.98
		c1.143,2.046,2.717,3.641,4.724,4.784c2.005,1.143,4.252,1.715,6.739,1.715S557.625,139.906,559.631,138.764z"/>
	<path fill="#5CAE61" d="M645.561,105.938l-13.78,42.122h-10.47l-9.268-28.523l-9.567,28.523h-10.41l-13.84-42.122h10.109
		l9.507,29.605l9.929-29.605h9.026l9.628,29.847l9.809-29.847H645.561z"/>
	<path fill="#5CAE61" d="M659.822,113.881h-13.479v-7.942h36.707v7.942H669.57v34.18h-9.748V113.881z"/>
	<path fill="#5CAE61" d="M726.917,105.938v42.122h-9.749V130.79h-19.135v17.271h-9.749v-42.122h9.749v16.607h19.135v-16.607H726.917
		z"/>
	<path fill="#5CAE61" d="M764.646,139.034H745.09l-3.731,9.026h-9.989l18.774-42.122h9.628l18.835,42.122h-10.229L764.646,139.034z
		 M761.577,131.633l-6.68-16.127l-6.679,16.127H761.577z"/>
	<path fill="#5CAE61" d="M821.329,148.061l-0.06-25.273l-12.396,20.82h-4.393l-12.336-20.279v24.732h-9.146v-42.122h8.063
		l15.766,26.176l15.525-26.176h8.003l0.121,42.122H821.329z"/>
	<path fill="#5CAE61" d="M385.607,232.667V190.54h2.889v7.041c2.347-4.513,7.101-7.462,12.878-7.462
		c8.064,0.301,14.443,5.717,14.443,15.286c0,9.989-6.74,15.406-15.105,15.406c-5.056,0-9.75-2.468-12.277-7.402v19.258H385.607z
		 M412.869,205.405c0-8.365-5.416-12.458-12.156-12.458c-6.921,0-12.036,5.236-12.036,12.518c0,7.282,5.235,12.518,12.036,12.518
		C407.453,217.982,412.869,213.77,412.869,205.405z"/>
	<path fill="#5CAE61" d="M425.804,190.54l0.121,5.296c1.866-4.032,6.078-5.597,9.87-5.597c2.227-0.06,4.393,0.542,6.379,1.745
		l-1.324,2.407c-1.565-0.963-3.31-1.384-5.055-1.384c-5.537,0.061-9.81,4.514-9.81,9.93v17.332h-2.949V190.54H425.804z"/>
	<path fill="#5CAE61" d="M445.24,205.465c0-9.448,6.74-15.466,15.105-15.466c8.365,0,15.105,6.018,15.105,15.466
		s-6.74,15.226-15.105,15.226C451.98,220.69,445.24,214.913,445.24,205.465z M472.562,205.465c0-7.703-5.477-12.698-12.216-12.698
		c-6.74,0-12.217,4.995-12.217,12.698s5.477,12.337,12.217,12.337C467.085,217.802,472.562,213.168,472.562,205.465z"/>
	<path fill="#5CAE61" d="M482.246,232.667V190.54h2.889v7.041c2.348-4.513,7.102-7.462,12.879-7.462
		c8.064,0.301,14.443,5.717,14.443,15.286c0,9.989-6.74,15.406-15.105,15.406c-5.055,0-9.749-2.468-12.276-7.402v19.258H482.246z
		 M509.508,205.405c0-8.365-5.416-12.458-12.156-12.458c-6.921,0-12.036,5.236-12.036,12.518c0,7.282,5.236,12.518,12.036,12.518
		C504.092,217.982,509.508,213.77,509.508,205.405z"/>
	<path fill="#5CAE61" d="M517.99,205.405c0-8.907,6.74-15.347,15.105-15.347s15.827,5.115,14.684,16.73h-26.78
		c0.602,6.98,5.958,11.013,12.097,11.013c3.911,0,8.485-1.564,10.712-4.513l2.106,1.685c-2.889,3.791-8.064,5.717-12.818,5.717
		C524.73,220.69,517.99,214.854,517.99,205.405z M545.132,204.201c-0.061-7.342-4.875-11.435-12.036-11.435
		c-6.139,0-11.435,4.153-12.097,11.435H545.132z"/>
	<path fill="#5CAE61" d="M558.187,190.54l0.12,5.296c1.866-4.032,6.078-5.597,9.87-5.597c2.227-0.06,4.394,0.542,6.379,1.745
		l-1.324,2.407c-1.564-0.963-3.31-1.384-5.055-1.384c-5.537,0.061-9.81,4.514-9.81,9.93v17.332h-2.949V190.54H558.187z"/>
	<path fill="#5CAE61" d="M587.672,181.573v8.967h10.11v2.468h-10.11v18.114c0,4.032,0.843,6.86,5.477,6.86
		c1.444,0,3.069-0.481,4.573-1.203l1.023,2.407c-1.865,0.902-3.731,1.504-5.597,1.504c-6.319,0-8.365-3.73-8.365-9.568v-18.114
		h-6.319v-2.468h6.319v-8.666L587.672,181.573z"/>
	<path fill="#5CAE61" d="M630.638,190.54l-18.114,42.127h-3.129l5.476-12.759l-11.915-29.368h3.189l6.921,17.573l3.49,8.605
		l3.431-8.666l7.462-17.513H630.638z"/>
	<path fill="#5CAE61" d="M681.425,178.143v42.127h-2.889v-6.56c-2.468,4.514-7.343,7.041-12.397,7.041
		c-8.305,0-14.865-5.477-14.865-15.346c0-9.81,6.62-15.347,14.926-15.347c5.115,0,9.93,2.167,12.337,6.981v-18.897H681.425z
		 M654.162,205.405c0,8.244,5.477,12.457,12.157,12.457c6.98,0,12.156-5.115,12.156-12.518s-5.296-12.457-12.156-12.457
		C659.639,192.888,654.162,197.04,654.162,205.405z"/>
	<path fill="#5CAE61" d="M688.882,205.405c0-8.907,6.74-15.347,15.105-15.347s15.827,5.115,14.684,16.73h-26.78
		c0.602,6.98,5.958,11.013,12.097,11.013c3.911,0,8.485-1.564,10.712-4.513l2.106,1.685c-2.889,3.791-8.064,5.717-12.818,5.717
		C695.622,220.69,688.882,214.854,688.882,205.405z M716.023,204.201c-0.061-7.342-4.875-11.435-12.036-11.435
		c-6.139,0-11.435,4.153-12.097,11.435H716.023z"/>
	<path fill="#5CAE61" d="M722.82,190.54h3.25l10.832,26.299l10.833-26.299h3.249l-12.457,29.729h-3.25L722.82,190.54z"/>
	<path fill="#5CAE61" d="M754.172,205.405c0-8.907,6.74-15.347,15.105-15.347s15.827,5.115,14.684,16.73h-26.78
		c0.602,6.98,5.958,11.013,12.097,11.013c3.911,0,8.485-1.564,10.712-4.513l2.106,1.685c-2.889,3.791-8.064,5.717-12.818,5.717
		C760.912,220.69,754.172,214.854,754.172,205.405z M781.313,204.201c-0.061-7.342-4.875-11.435-12.036-11.435
		c-6.139,0-11.435,4.153-12.097,11.435H781.313z"/>
	<path fill="#5CAE61" d="M794.549,178.143v42.127H791.6v-42.127H794.549z"/>
	<path fill="#5CAE61" d="M801.407,205.465c0-9.448,6.74-15.466,15.105-15.466s15.105,6.018,15.105,15.466
		s-6.74,15.226-15.105,15.226S801.407,214.913,801.407,205.465z M828.729,205.465c0-7.703-5.477-12.698-12.217-12.698
		s-12.217,4.995-12.217,12.698s5.477,12.337,12.217,12.337S828.729,213.168,828.729,205.465z"/>
	<path fill="#5CAE61" d="M838.414,232.667V190.54h2.889v7.041c2.348-4.513,7.102-7.462,12.879-7.462
		c8.064,0.301,14.443,5.717,14.443,15.286c0,9.989-6.74,15.406-15.105,15.406c-5.055,0-9.749-2.468-12.276-7.402v19.258H838.414z
		 M865.676,205.405c0-8.365-5.416-12.458-12.156-12.458c-6.921,0-12.036,5.236-12.036,12.518c0,7.282,5.236,12.518,12.036,12.518
		C860.26,217.982,865.676,213.77,865.676,205.405z"/>
	<path fill="#5CAE61" d="M874.158,205.405c0-8.907,6.74-15.347,15.105-15.347s15.827,5.115,14.684,16.73h-26.78
		c0.602,6.98,5.958,11.013,12.097,11.013c3.911,0,8.485-1.564,10.712-4.513l2.106,1.685c-2.889,3.791-8.064,5.717-12.818,5.717
		C880.898,220.69,874.158,214.854,874.158,205.405z M901.3,204.201c-0.061-7.342-4.875-11.435-12.036-11.435
		c-6.139,0-11.435,4.153-12.097,11.435H901.3z"/>
	<path fill="#5CAE61" d="M914.354,190.54l0.12,5.296c1.866-4.032,6.078-5.597,9.87-5.597c2.227-0.06,4.394,0.542,6.379,1.745
		l-1.324,2.407c-1.564-0.963-3.31-1.384-5.055-1.384c-5.537,0.061-9.81,4.514-9.81,9.93v17.332h-2.949V190.54H914.354z"/>
	<path fill="#5CAE61" d="M955.576,195.957c-3.009-2.648-5.958-3.13-9.268-3.13c-4.634-0.061-9.087,1.685-8.967,5.477
		c0.12,3.972,5.296,4.754,9.027,5.416c5.296,0.903,12.577,1.806,12.276,8.727c-0.181,6.56-6.98,8.305-12.217,8.305
		c-5.235,0-10.411-1.986-12.999-5.958l2.167-1.926c2.467,3.551,6.921,5.056,10.893,5.056c3.61,0,9.087-0.963,9.268-5.657
		c0.12-4.273-4.814-5.115-9.688-5.897c-5.777-0.963-11.495-2.047-11.555-8.005c-0.061-5.837,5.777-8.364,11.795-8.305
		c4.333,0,8.124,1.204,11.073,3.973L955.576,195.957z"/>
</g>
<g>
	<polygon fill-rule="evenodd" clip-rule="evenodd" fill="#F3F3F3" points="138.719,125.324 142.929,122.622 142.929,126.628 
		138.719,129.338 	"/>
	<polygon fill-rule="evenodd" clip-rule="evenodd" fill="#F3F3F3" points="145.396,121.012 149.632,118.231 149.632,122.223 
		145.396,124.921 	"/>
	<polygon fill-rule="evenodd" clip-rule="evenodd" fill="#F3F3F3" points="138.719,137.188 142.929,134.497 142.929,138.502 
		138.719,141.182 	"/>
	<polygon fill-rule="evenodd" clip-rule="evenodd" fill="#F3F3F3" points="145.396,132.864 149.632,130.088 149.632,134.097 
		145.396,136.794 	"/>
	<polygon fill-rule="evenodd" clip-rule="evenodd" fill="#F3F3F3" points="138.719,149.045 142.929,146.365 142.929,150.354 
		138.719,153.055 	"/>
	<polygon fill-rule="evenodd" clip-rule="evenodd" fill="#F3F3F3" points="145.396,144.73 149.632,141.945 149.632,145.963 
		145.396,148.659 	"/>
	<polygon fill-rule="evenodd" clip-rule="evenodd" fill="#F3F3F3" points="138.719,160.406 142.929,157.711 142.929,161.715 
		138.719,164.422 	"/>
	<polygon fill-rule="evenodd" clip-rule="evenodd" fill="#F3F3F3" points="145.396,156.094 149.632,153.323 149.632,157.313 
		145.396,160.002 	"/>
	<polygon fill-rule="evenodd" clip-rule="evenodd" fill="#F3F3F3" points="138.719,172.28 142.929,169.585 142.929,173.59 
		138.719,176.27 	"/>
	<polygon fill-rule="evenodd" clip-rule="evenodd" fill="#F3F3F3" points="145.396,167.947 149.632,165.175 149.632,169.183 
		145.396,171.882 	"/>
	<polygon fill-rule="evenodd" clip-rule="evenodd" fill="#F3F3F3" points="138.719,184.126 142.929,181.44 142.929,185.441 
		138.719,188.144 	"/>
	<polygon fill-rule="evenodd" clip-rule="evenodd" fill="#F3F3F3" points="145.396,179.805 149.632,177.035 149.632,181.048 
		145.396,183.746 	"/>
	<path fill-rule="evenodd" clip-rule="evenodd" fill="#5CAE61" d="M324.679,199.893v-25.036l-0.915-1.585l-11.364-7.083V132.18
		l-0.845-1.583l-26.659-17.103l-1.59-0.189l-26.28,8.823l0.165-84.08c0-0.778-0.389-1.497-0.99-1.957l-36.94-26.714
		c-0.754-0.535-1.709-0.6-2.537-0.203c-0.783,0.419-1.292,1.25-1.292,2.168v33.863L184.8,63.962
		c-0.702,0.442-1.151,1.206-1.151,2.059v47.032l-28.807-9.387c-0.359-0.104-0.696-0.104-1.042-0.025l-0.082-0.125l-0.531,0.395
		c0,0-0.018,0.009-0.018,0.015c-0.021,0.008-0.021,0.008-0.03,0.023l-19.688,14.388c-0.5,0.362-0.785,0.901-0.785,1.519v75.375
		c-27.299,8.52-42.973,17.951-42.973,17.951s27.248-7.621,62.7-13.5v0.033c1.241-0.215,2.486-0.383,3.741-0.57v-0.07
		c20.555-3.284,43.573-5.892,65.49-6.08c81.889-0.699,140.868,24.373,140.868,24.373
		C353.742,211.544,340.373,205.402,324.679,199.893z"/>
	<g>
		<g>
			<polygon fill="#F3F3F3" points="168.111,122.012 163.015,120.667 163.015,116.615 168.111,117.96 			"/>
			<polygon fill="#F3F3F3" points="175.611,123.81 170.502,122.463 170.502,118.419 175.611,119.762 			"/>
		</g>
	</g>
	<g>
		<g>
			<polygon fill="#F3F3F3" points="168.111,133.701 163.015,132.354 163.015,128.311 168.111,129.659 			"/>
			<polygon fill="#F3F3F3" points="175.611,135.507 170.502,134.16 170.502,130.108 175.611,131.454 			"/>
		</g>
	</g>
	<g>
		<g>
			<polygon fill="#F3F3F3" points="168.111,145.405 163.015,144.053 163.015,140 168.111,141.354 			"/>
			<polygon fill="#F3F3F3" points="175.611,147.207 170.502,145.854 170.502,141.802 175.611,143.155 			"/>
		</g>
	</g>
	<g>
		<g>
			<polygon fill="#F3F3F3" points="168.111,157.097 163.015,155.742 163.015,151.707 168.111,153.054 			"/>
			<polygon fill="#F3F3F3" points="175.611,158.895 170.502,157.546 170.502,153.494 175.611,154.85 			"/>
		</g>
	</g>
	<g>
		<g>
			<polygon fill="#F3F3F3" points="168.111,168.792 163.015,167.443 163.015,163.396 168.111,164.735 			"/>
			<polygon fill="#F3F3F3" points="175.611,170.587 170.502,169.235 170.502,165.19 175.611,166.539 			"/>
		</g>
	</g>
	<g>
		<g>
			<polygon fill="#F3F3F3" points="168.111,180.493 163.015,179.137 163.015,175.087 168.111,176.436 			"/>
			<polygon fill="#F3F3F3" points="175.611,182.288 170.502,180.937 170.502,176.893 175.611,178.24 			"/>
		</g>
	</g>
	<polygon fill-rule="evenodd" clip-rule="evenodd" fill="#F3F3F3" points="306.398,138.447 289.36,127.741 289.36,131.746 
		306.398,142.446 	"/>
	<polygon fill-rule="evenodd" clip-rule="evenodd" fill="#F3F3F3" points="306.398,152.576 289.36,141.871 289.36,145.86 
		306.398,156.576 	"/>
	<g>
		<g>
			<polygon fill-rule="evenodd" clip-rule="evenodd" fill="#F3F3F3" points="192.583,77.101 199.668,72.594 199.668,79.307 
				192.583,83.807 			"/>
			<polygon fill-rule="evenodd" clip-rule="evenodd" fill="#F3F3F3" points="192.583,96.985 199.668,92.488 199.668,99.177 
				192.583,103.686 			"/>
			<polygon fill-rule="evenodd" clip-rule="evenodd" fill="#F3F3F3" points="203.803,89.768 210.907,85.103 210.907,91.82 
				203.803,96.328 			"/>
			<polygon fill-rule="evenodd" clip-rule="evenodd" fill="#F3F3F3" points="203.803,71.158 210.907,66.522 210.907,73.216 
				203.803,77.732 			"/>
			<polygon fill-rule="evenodd" clip-rule="evenodd" fill="#F3F3F3" points="192.583,116.849 199.668,112.341 199.668,119.035 
				192.583,123.555 			"/>
			<polygon fill-rule="evenodd" clip-rule="evenodd" fill="#F3F3F3" points="203.803,109.608 210.907,104.969 210.907,111.697 
				203.803,116.197 			"/>
			<polygon fill-rule="evenodd" clip-rule="evenodd" fill="#F3F3F3" points="192.583,134.809 199.668,130.266 199.668,136.995 
				192.583,141.482 			"/>
			<polygon fill-rule="evenodd" clip-rule="evenodd" fill="#F3F3F3" points="203.803,127.563 210.907,122.938 210.907,129.638 
				203.803,134.16 			"/>
			<polygon fill-rule="evenodd" clip-rule="evenodd" fill="#F3F3F3" points="192.583,154.673 199.668,150.148 199.668,156.848 
				192.583,161.373 			"/>
			<polygon fill-rule="evenodd" clip-rule="evenodd" fill="#F3F3F3" points="203.803,147.446 210.907,142.792 210.907,149.488 
				203.803,154.028 			"/>
			<polygon fill-rule="evenodd" clip-rule="evenodd" fill="#F3F3F3" points="192.583,174.515 199.668,170.021 199.668,176.722 
				192.583,181.248 			"/>
			<polygon fill-rule="evenodd" clip-rule="evenodd" fill="#F3F3F3" points="203.803,167.311 210.907,162.659 210.907,169.385 
				203.803,173.89 			"/>
		</g>
	</g>
	<g>
		<g>
			<polygon fill-rule="evenodd" clip-rule="evenodd" fill="#F3F3F3" points="248.252,52.589 240.09,47.421 240.09,55.133 
				248.252,60.324 			"/>
			<polygon fill-rule="evenodd" clip-rule="evenodd" fill="#F3F3F3" points="248.252,75.463 240.09,70.259 240.09,77.977 
				248.252,83.186 			"/>
			<polygon fill-rule="evenodd" clip-rule="evenodd" fill="#F3F3F3" points="235.346,67.145 227.179,61.797 227.179,69.518 
				235.346,74.711 			"/>
			<polygon fill-rule="evenodd" clip-rule="evenodd" fill="#F3F3F3" points="235.346,45.745 227.179,40.393 227.179,48.098 
				235.346,53.313 			"/>
			<polygon fill-rule="evenodd" clip-rule="evenodd" fill="#F3F3F3" points="248.252,98.329 240.09,93.125 240.09,100.818 
				248.252,106.009 			"/>
			<polygon fill-rule="evenodd" clip-rule="evenodd" fill="#F3F3F3" points="235.346,89.994 227.179,84.669 227.179,92.373 
				235.346,97.561 			"/>
			<polygon fill-rule="evenodd" clip-rule="evenodd" fill="#F3F3F3" points="248.252,118.968 240.09,113.777 240.09,121.513 
				248.252,126.681 			"/>
			<polygon fill-rule="evenodd" clip-rule="evenodd" fill="#F3F3F3" points="235.346,110.667 227.179,105.332 227.179,113.038 
				235.346,118.219 			"/>
			<polygon fill-rule="evenodd" clip-rule="evenodd" fill="#F3F3F3" points="248.252,141.819 240.09,136.616 240.09,144.341 
				248.252,149.541 			"/>
			<polygon fill-rule="evenodd" clip-rule="evenodd" fill="#F3F3F3" points="235.346,133.513 227.179,128.159 227.179,135.895 
				235.346,141.085 			"/>
			<polygon fill-rule="evenodd" clip-rule="evenodd" fill="#F3F3F3" points="248.252,164.675 240.09,159.482 240.09,167.19 
				248.252,172.385 			"/>
			<polygon fill-rule="evenodd" clip-rule="evenodd" fill="#F3F3F3" points="235.346,156.349 227.179,151.018 227.179,158.749 
				235.346,163.932 			"/>
		</g>
	</g>
	<polygon fill-rule="evenodd" clip-rule="evenodd" fill="#F3F3F3" points="306.398,166.218 289.36,155.512 289.36,159.534 
		306.398,170.237 	"/>
	<polygon fill-rule="evenodd" clip-rule="evenodd" fill="#F3F3F3" points="306.488,179.529 289.128,169.406 289.259,173.41 
		306.633,183.531 	"/>
	<g>
		<g>
			<polygon fill="#F3F3F3" points="278.875,129.861 278.823,126.404 261.441,132.106 261.46,135.632 			"/>
			<polygon fill="#F3F3F3" points="278.875,140.493 278.823,137.039 261.48,142.737 261.491,146.242 			"/>
			<polygon fill="#F3F3F3" points="278.875,151.115 278.823,147.663 261.52,153.341 261.531,156.874 			"/>
			<polygon fill="#F3F3F3" points="278.875,162.309 278.823,158.85 261.552,164.527 261.56,168.053 			"/>
			<polygon fill="#F3F3F3" points="278.875,173.501 278.823,170.045 261.583,175.709 261.592,179.236 			"/>
		</g>
	</g>
</g>
<g id="Layer_x0020_1">
	<g>
		<path fill="#5CAE61" d="M173.071,238.767l18.688,0.265l9.224-2.328c0.197-0.043,0.383-0.064,0.57-0.064v-0.012h18.589l5.764-6.401
			l0.714-0.79h1.054h18.994h0.614l0.571,0.329l16.076,9.278l18.357-0.101v-0.163v-2.373h2.374h34.093h2.373v2.373v38.352v2.372
			h-2.373h-34.093h-2.374v-2.372v-2.184h-11.122l-11.979,5.652l3.612,3.787c0.9,0.946,0.858,2.449-0.088,3.349
			c-0.23,0.223-0.482,0.376-0.755,0.485l-39.331,16.337c-0.889,0.374-1.888,0.152-2.547-0.481l-33.652-29.151l-13.34-0.241v2.447
			v2.372h-2.372h-37.106h-2.371v-2.372v-38.352v-2.373h2.371h37.106h2.372v2.373l0,0L173.071,238.767z M296.527,265.044v4.752
			h-4.755v-4.752H296.527z M282.276,243.654l-18.983,0.097h-0.64l-0.547-0.317l-16.052-9.267h-17.326l-5.643,6.269l-0.012,0.012
			l-0.032,0.044l-0.186,0.209l-16.92,18.798c-0.286,0.714-0.22,1.558,0.108,2.336c0.297,0.706,0.813,1.373,1.473,1.902
			c0.669,0.525,1.481,0.922,2.382,1.052c1.537,0.244,3.393-0.218,5.357-1.799l0.143-0.1l14.715-10.178l1.667-1.152l1.394,1.482
			l22.576,23.923l13.889-6.553l0.494-0.231h0.514h11.639v-26.526H282.276z M218.648,288.032c-0.977-0.867-1.065-2.36-0.208-3.336
			c0.867-0.977,2.361-1.063,3.339-0.209l11.726,10.387l4.338-1.802l-10.081-8.935c-0.976-0.87-1.065-2.362-0.208-3.339
			c0.866-0.979,2.359-1.067,3.338-0.209l11.803,10.463l4.74-1.966l-9.648-8.553c-0.979-0.866-1.067-2.359-0.208-3.338
			c0.866-0.979,2.359-1.064,3.338-0.21l11.374,10.082l4.679-1.943l-2.319-2.428l-0.009,0.012l-1.178-1.242l-0.01-0.01l-0.031-0.032
			l-0.044-0.046l-22.29-23.615l-12.934,8.948c-3.108,2.49-6.28,3.184-9.015,2.754c-1.768-0.272-3.337-1.011-4.6-2.021
			c-1.274-1.009-2.273-2.328-2.877-3.742c-0.901-2.118-0.955-4.514,0.154-6.622l0.142-0.272l0.198-0.209l13.703-15.218h-14.032
			l-9.201,2.316v-0.013c-0.186,0.045-0.395,0.078-0.604,0.065l-18.962-0.262v26.45l14.284,0.25l0.143,0.015l0.076,0.009l0.132,0.022
			l0.066,0.01l0.077,0.024l0.054,0.009l0.286,0.1l0.044,0.021c0.219,0.088,0.428,0.223,0.614,0.384l33.279,28.835l6.5-2.7
			l-10.003-8.861L218.648,288.032z"/>
	</g>
</g>
</svg>
