<?xml version="1.0" encoding="utf-8"?>
<!-- Generator: Adobe Illustrator 16.0.0, SVG Export Plug-In . SVG Version: 6.00 Build 0)  -->
<!DOCTYPE svg PUBLIC "-//W3C//DTD SVG 1.1//EN" "http://www.w3.org/Graphics/SVG/1.1/DTD/svg11.dtd">
<svg version="1.1" id="Layer_1" xmlns="http://www.w3.org/2000/svg" xmlns:xlink="http://www.w3.org/1999/xlink" x="0px" y="0px"
	 width="300px" height="300px" viewBox="0 0 300 300" enable-background="new 0 0 300 300" xml:space="preserve">
<g enable-background="new    ">
	<path fill="#FF3F68" d="M268.332,17.188v13.663h13.023v4.32h-13.023v13.76h-4.672v-13.76H250.7v-4.32h12.96V17.188H268.332z"/>
</g>
<g>
	<g>
		<path fill="#FF3F68" d="M30.354,242.834V229.01l17.664-17.152c42.496-40.447,61.695-61.951,61.951-87.039
			c0-16.896-8.192-32.511-33.023-32.511c-15.104,0-27.648,7.68-35.328,14.08L34.45,90.516C45.97,80.788,62.354,73.62,81.553,73.62
			c35.839,0,50.943,24.576,50.943,48.383c0,30.72-22.272,55.552-57.343,89.343l-13.312,12.288v0.512h74.751v18.688H30.354z"/>
		<path fill="#FF3F68" d="M272.269,157.843c0,56.575-20.991,87.808-57.855,87.808c-32.512,0-54.527-30.465-55.039-85.504
			c0-55.807,24.063-86.527,57.855-86.527C252.301,73.62,272.269,104.851,272.269,157.843z M181.901,160.402
			c0,43.264,13.313,67.84,33.792,67.84c23.04,0,34.048-26.881,34.048-69.375c0-40.96-10.496-67.84-33.792-67.84
			C196.237,91.027,181.901,115.091,181.901,160.402z"/>
	</g>
</g>
</svg>
